<svg id="Layer_2" data-name="Layer 2" xmlns="http://www.w3.org/2000/svg" width="1920" height="1080" viewBox="0 0 1920 1080"><defs><style>.cls-1{fill:#e50912;}</style></defs><path class="cls-1" d="M153.31,765.77c-16.87-15-25.31-40.52-25.31-76v-25q32.19-5.38,64.45-10.35l-.06,29c0,27.48,11.69,38.89,35.25,34.57Q245,714.9,254,703.68c6-7.47,9.06-18.35,9.11-32.76.06-17.12-4-31.59-12.28-43.62s-23.53-25.85-45.87-42c-28.13-20.71-47.79-41-59-60s-16.78-41.44-16.78-66.86c0-34.58,8.73-61.73,26.23-80.65s42.94-28.06,76.29-28c32.91,0,57.79,8.91,74.59,26.06s25.11,41.54,25,73.61q0,8.2-.08,16.42-32.44,1.67-64.89,3.48,0-10.5.07-21c.05-14-2.83-24.08-8.63-30.34s-14.33-9.26-25.56-8.94q-34.35.92-34.42,41.42a73.12,73.12,0,0,0,12.69,41.9c8.48,12.58,23.91,27.33,46.27,43.69,28.58,20.89,48.21,39.68,58.94,57.12s16,38.45,15.89,63.35c-.15,32.44-9.09,58.59-26.77,79.24s-43.29,34.51-76.73,41.55C195.06,784.26,170.17,780.85,153.31,765.77Z"/><path class="cls-1" d="M425.83,409.65q-35.93.84-71.85,1.78.13-28,.28-56.08,106.26-.25,212.53-.42l-.3,51.89q-36,.6-71.9,1.34-.94,159.32-1.87,318.64-34.39,4.49-68.72,9.63Z"/><path class="cls-1" d="M624.3,354.84l93.15-.1c23.25,116.63,46.62,231.67,70.15,345.83q-34.59,1.65-69.15,4-6.13-34.32-12.26-68.77v1Q667,639,627.78,641.93q-6.46,35.4-12.92,71-32,3.07-63.93,6.71Q587.68,533.25,624.3,354.84Zm74,234.74q-15-86.05-29.87-173.17l-1.25,0q-15.45,87.63-31,176.56Q667.2,591.1,698.25,589.58Z"/><path class="cls-1" d="M846.75,403.73q-36,.18-72,.47.09-24.75.17-49.51,106.27-.07,212.56-.07,0,24.44,0,48.85-36,0-72,0-.14,146.61-.26,293.23-34.62.43-69.22,1.52Q846.42,551,846.75,403.73Z"/><path class="cls-1" d="M1020.65,354.63q91,0,181.92.11l.21,50q-56.61-.59-113.24-.91l.24,95.87q44.51.69,89,1.86.11,24.88.2,49.77-44.52-1.55-89.07-2.47.18,75,.37,149.95-34.59-1.24-69.21-1.83Q1020.85,525.81,1020.65,354.63Z"/><path class="cls-1" d="M1235.7,354.77l68.76.09q.84,153.52,1.67,307.06,56.73,4.7,113.34,10.94l.31,53q-91-11.69-182.41-18.72Q1236.53,530.95,1235.7,354.77Z"/><path class="cls-1" d="M1450.73,355.1l68.76.14q1,192.56,2.09,385.12-34.29-5.4-68.67-10.13Q1451.83,542.67,1450.73,355.1Z"/><path class="cls-1" d="M1632.15,553q-38.09-102.27-76.41-197.66l72.51.18q23.38,65.22,46.66,133.29l1.25.08q23.47-65,47.09-133.1l65,.21q-37.8,106.56-75.17,205,39.74,111.6,78.92,232.53-35.76-8.46-71.64-16.19-24.88-78.81-50-153.72l-1.25-.17q-25.26,68.32-50.43,133.52-32.31-6-64.7-11.39Q1593,652.4,1632.15,553Z"/></svg>